PathFileType	3	(X/Y/Z)	D:\minhoCalibration\240510\subject3_KPNP\preferred\preferred05.trc
DataRate	CameraRate	NumFrames	NumMarkers	Units	OrigDataRate	OrigDataStartFrame	OrigNumFrames
200.0	200.0	33	10	mm	200.0	107	126	
Frame#	Time	Left_Ankle_Outer1			Left_Ankle_Inner1			Left_Knee_Outer1			Left_Knee_Inner1			Left_Wrist1			Right_Wrist1			Right_Knee_Inner1			Right_Knee_Outer1			Right_Ankle_Inner1			Right_Ankle_Outer1			
		X1	Y1	Z1	X2	Y2	Z2	X3	Y3	Z3	X4	Y4	Z4	X5	Y5	Z5	X6	Y6	Z6	X7	Y7	Z7	X8	Y8	Z8	X9	Y9	Z9	X10	Y10	Z10	
107	0.525	-335.26639	135.99725	-522.13867	-382.45593	155.12848	-491.62454	-150.19789	532.245	-476.49557	-209.16112	549.97858	-393.99768	-148.1001	930.43445	-691.93811	-365.6962	1108.7419	-430.19598	-321.1767	907.28949	-42.662506	-363.85324	1021.0242	-60.441746	-692.60803	730.62457	-152.99617	-739.29437	819.41235	-131.52805
108	0.53	-335.90192	135.36462	-521.31525	-382.48566	154.52417	-491.46423	-150.50691	531.76251	-475.09891	-208.66148	549.55859	-393.33801	-152.77098	928.06476	-694.20422	-363.08237	1112.2091	-430.8909	-306.4501	926.87445	-41.026737	-347.3927	1038.6539	-62.176464	-689.97504	748.24164	-106.15761	-733.92474	838.5119	-86.300919
109	0.535	-336.1947	134.13397	-521.35522	-382.42712	153.74184	-491.7034	-150.86577	531.17609	-473.70999	-208.45244	549.07208	-391.59802	-157.37811	924.93201	-696.2749	-360.41922	1115.6631	-431.85846	-292.9104	945.15631	-40.978622	-331.97949	1054.5339	-65.702095	-684.3111	767.38837	-57.771748	-725.89941	858.87018	-39.87368
110	0.54	-335.19772	133.88763	-522.00293	-382.29367	152.82648	-492.36719	-151.52101	530.61389	-472.24371	-208.84	548.44983	-391.12357	-161.2981	922.07916	-698.03046	-357.814	1118.7701	-433.08395	-280.73315	962.039	-41.949646	-318.25378	1068.8401	-70.658234	-675.026	788.23633	-8.1242714	-714.57501	880.7066	7.4984961
111	0.545	-335.48328	132.59966	-521.95459	-382.14691	151.85138	-493.36285	-152.44394	529.80768	-470.76935	-209.78989	547.65564	-389.73004	-166.37691	918.45544	-698.7832	-355.45932	1121.4354	-434.53076	-270.2334	977.33051	-43.750328	-306.36331	1081.2562	-76.904831	-660.44489	807.91827	38.051476	-698.00366	901.05731	50.949612
112	0.55	-335.05521	131.51103	-522.80975	-381.95169	150.79842	-494.52792	-153.33611	528.97174	-469.4165	-210.81828	546.94702	-387.97897	-170.75296	914.81317	-699.34076	-352.89621	1123.3618	-436.19263	-262.08078	990.71954	-46.638409	-297.25629	1091.3789	-83.617165	-643.54474	831.10693	86.320595	-678.68445	924.96997	96.865791
113	0.555	-333.83505	131.2738	-523.94257	-381.95306	149.77502	-495.70688	-154.6468	528.11053	-468.00812	-212.66861	545.31567	-387.77753	-174.72774	911.08575	-699.44525	-351.08047	1124.8439	-438.15237	-256.33847	1001.5399	-49.960224	-290.90881	1098.9373	-90.676414	-621.42114	855.73273	134.77351	-654.65161	949.77234	141.69968
114	0.56	-334.61356	129.49043	-524.39832	-382.05521	148.75584	-496.98376	-155.81418	527.23779	-466.74283	-214.40157	544.16785	-386.86649	-178.4353	907.35175	-699.0108	-349.43997	1126.4313	-440.55811	-252.60693	1009.9145	-54.042854	-286.948	1104.6517	-97.634758	-593.10822	882.14978	183.07452	-626.41736	976.60699	184.78041
115	0.565	-333.61459	129.4709	-525.51117	-382.17847	147.82335	-498.08746	-157.16963	526.41235	-465.48163	-217.21451	543.37799	-384.62555	-181.58852	903.63361	-698.0932	-348.24435	1127.6238	-443.2175	-251.41882	1016.1724	-58.566685	-286.09784	1108.9998	-103.5898	-560.66174	909.87384	226.97925	-593.60034	1004.8837	224.55547
116	0.57	-334.15988	128.328	-526.10083	-382.51578	146.93506	-499.09109	-158.72075	525.70984	-464.02954	-219.28847	542.8252	-383.89886	-184.27739	900.18188	-696.40387	-348.53009	1128.5537	-446.25037	-251.94165	1020.3302	-62.963539	-287.4296	1111.9204	-108.5786	-524.33307	939.12775	266.22772	-557.23212	1034.8376	260.62558
117	0.575	-334.94431	127.52917	-525.93805	-382.96164	146.15012	-500.03171	-160.29665	525.07202	-462.69086	-221.64731	541.89447	-383.26495	-186.4482	897.16766	-693.93097	-349.02881	1129.2333	-449.08093	-253.65472	1022.8196	-66.407814	-290.36783	1113.2406	-112.18288	-483.34265	967.96918	299.26782	-515.86041	1064.3978	289.39975
118	0.58	-335.28256	127.01477	-526.49731	-383.44998	145.43231	-500.74231	-161.69658	524.66119	-461.56482	-223.9469	541.43268	-382.47278	-188.22125	894.7356	-690.51343	-350.33875	1129.9324	-451.32944	-255.89662	1024.3367	-68.163628	-294.42786	1112.8898	-114.1664	-443.66779	995.53094	320.45029	-471.67422	1093.3107	311.37866
119	0.585	-335.67953	126.57252	-527.01868	-384.09546	144.87369	-501.2569	-163.16785	524.43915	-460.42276	-226.43849	540.66614	-381.69861	-189.70256	893.21118	-686.02856	-352.08823	1131.1621	-452.72656	-259.32446	1025.4336	-68.87178	-298.99014	1111.0164	-115.01801	-401.66409	1021.3911	335.34604	-424.02417	1120.0802	324.12299
120	0.59	-336.18152	126.44872	-527.4527	-384.86453	144.38788	-501.56223	-164.50772	524.31696	-459.366	-228.87675	540.34784	-381.17441	-190.70375	892.57538	-680.73804	-355.00967	1133.2585	-453.38623	-262.38132	1026.4679	-69.596008	-305.38483	1107.9474	-114.29135	-364.67932	1051.1619	341.6507	-383.1055	1149.2444	321.42853
121	0.595	-337.44772	125.81017	-527.55981	-385.7774	144.02753	-501.65195	-165.86438	524.3559	-458.13232	-230.79118	540.09192	-379.99323	-191.48668	892.81384	-674.74036	-358.49667	1135.4382	-453.5162	-264.82391	1026.7576	-70.382942	-312.35901	1106.2371	-112.73212	-339.95416	1067.4556	342.20956	-357.68024	1164.7927	316.64447
122	0.6	-338.59259	125.74846	-527.45148	-386.7066	143.70221	-501.68997	-166.90714	524.60443	-456.92499	-232.64037	539.95319	-377.99496	-191.84145	893.76923	-668.18665	-362.26651	1137.2808	-453.28873	-265.15582	1025.7581	-70.982773	-320.14581	1107.1245	-111.33305	-332.77808	1082.1759	346.23346	-345.07877	1178.1387	311.07709
123	0.605	-339.16357	125.65006	-527.95459	-387.64639	143.27087	-501.78839	-167.89775	524.50067	-455.27277	-233.98734	539.38916	-376.36502	-191.75882	894.85938	-661.52661	-366.2576	1138.1912	-452.65536	-263.84961	1024.1031	-70.974403	-327.46265	1109.0771	-110.97334	-328.9823	1085.8872	342.10031	-344.08954	1182.4193	313.52512
124	0.61	-339.88934	125.29565	-527.98639	-388.39124	142.74049	-501.85687	-169.0499	524.58356	-453.14304	-235.13658	538.91858	-373.38599	-191.3112	896.24615	-655.00806	-370.71396	1138.2377	-451.72961	-262.02408	1024.0947	-69.68853	-333.43597	1112.3658	-111.15479	-328.51889	1076.4279	336.32468	-345.76059	1176.8391	317.88882
125	0.615	-340.96951	124.31376	-527.38062	-388.9274	142.03433	-502.19922	-170.43639	524.58569	-450.5871	-235.89496	538.07794	-370.84402	-190.42828	897.54578	-648.84448	-375.30017	1137.7034	-450.37244	-261.29019	1027.1177	-68.291733	-334.93643	1116.4617	-112.28179	-328.44681	1069.0062	338.89529	-351.18674	1167.7373	321.5264
126	0.62	-340.31952	124.33834	-527.76245	-389.19543	141.34886	-502.59662	-172.39272	524.66193	-447.50851	-236.71167	536.77893	-369.36948	-189.36911	898.83649	-643.24719	-380.07236	1136.7766	-448.64069	-261.31433	1030.812	-67.866112	-330.20758	1119.752	-112.32629	-325.98123	1063.5338	343.00815	-357.73544	1157.5353	325.07816
127	0.625	-340.71841	123.31271	-527.18689	-389.22	140.452	-503.25357	-174.29918	524.5697	-444.3735	-238.45129	536.06531	-365.88959	-188.38	900.06415	-638.22186	-385.04477	1135.2411	-446.5123	-260.60614	1034.0746	-68.445015	-321.18286	1121.4906	-110.5183	-324.26489	1055.4318	341.40094	-364.95193	1146.1859	328.07153
128	0.63	-338.7561	123.66045	-528.26904	-389.08463	139.49011	-504.19867	-176.69809	524.59857	-440.78604	-240.73026	535.24078	-364.16238	-187.62888	901.04102	-633.78912	-389.80322	1133.4646	-443.93246	-259.63217	1037.2262	-69.368217	-311.5462	1120.4611	-108.64323	-330.10291	1042.9758	341.25824	-370.76746	1135.0927	329.85938
129	0.635	-338.4924	122.70918	-528.60809	-389.15289	138.31107	-505.32651	-179.20567	524.46887	-437.31732	-244.15518	534.57672	-362.35614	-187.13647	901.77704	-629.95367	-394.60364	1131.4467	-441.05624	-259.22055	1040.1128	-70.034546	-305.63751	1119.9537	-110.32286	-331.98453	1033.1779	339.9921	-374.14133	1125.6759	330.66217
130	0.64	-338.51434	121.60521	-528.79053	-389.18655	137.25365	-506.49911	-181.93279	524.2373	-433.96976	-248.88905	534.51129	-360.33209	-186.56116	902.31409	-626.81958	-398.9964	1129.1528	-437.59363	-259.96722	1040.9991	-69.728783	-304.23346	1118.4867	-113.16012	-331.45688	1024.9049	339.17377	-377.07608	1116.6899	331.0303
131	0.645	-338.43771	120.88917	-528.9549	-389.29697	136.2381	-507.71649	-184.58675	524.08014	-430.90961	-254.10628	534.15875	-360.22369	-186.16711	902.36536	-624.1687	-402.91641	1126.4146	-434.29077	-261.50375	1040.0736	-69.006325	-306.4537	1114.891	-113.19506	-328.85931	1016.6018	340.03387	-379.90897	1106.7091	331.66995
132	0.65	-338.35822	120.31079	-529.22638	-389.51938	135.4296	-508.69519	-187.28375	523.93823	-428.12897	-259.72595	533.97955	-359.15979	-185.85335	902.08179	-621.71045	-407.1658	1123.884	-430.78802	-263.78738	1037.3176	-68.427147	-311.01678	1111.47	-111.3309	-331.59332	1006.644	340.96463	-384.0361	1095.5323	332.82007
133	0.655	-338.34058	119.95863	-529.54028	-389.91794	134.58377	-509.57758	-189.89162	523.87433	-425.65317	-265.14175	533.45154	-360.21658	-185.56674	901.64551	-619.32153	-411.37662	1120.7308	-427.25436	-266.40417	1033.1124	-68.518501	-317.72012	1108.269	-108.19727	-333.80359	994.80933	341.87924	-387.79395	1082.6786	334.10959
134	0.66	-337.76846	120.22011	-530.09521	-390.41824	133.89813	-510.28668	-192.50899	523.63171	-423.45312	-270.71918	533.11414	-359.45859	-184.9046	901.45624	-617.23602	-415.38223	1117.9392	-424.02863	-269.16916	1027.9189	-69.04747	-326.15482	1103.936	-104.14639	-335.80362	981.72809	342.9787	-392.26669	1068.204	335.69424
135	0.665	-339.02014	119.19443	-529.8689	-391.04581	133.22083	-511.02698	-194.94986	523.37476	-421.83286	-275.61661	532.89032	-360.6983	-184.35403	901.29877	-614.93512	-420.7594	1115.0012	-420.84216	-271.91779	1022.2621	-69.724258	-334.75269	1097.8755	-100.46661	-336.57718	974.17316	355.49704	-397.47717	1052.4301	337.43658
136	0.67	-338.92722	119.37318	-530.54114	-391.77103	132.71951	-511.4277	-197.20195	523.36194	-420.6442	-279.66287	532.64337	-362.18869	-184.10925	901.47583	-612.75391	-424.37927	1111.8298	-418.71448	-274.70264	1016.168	-69.785927	-343.46158	1090.6031	-97.461357	-337.90317	965.19843	367.89081	-402.83655	1034.9507	338.70209
137	0.675	-340.12119	118.56674	-530.51251	-392.63043	132.17125	-511.83133	-199.60046	523.11383	-419.9317	-283.297	532.69818	-363.18079	-183.55363	901.60645	-610.90234	-428.04773	1109.3462	-417.67957	-277.73764	1009.4568	-69.225693	-351.80664	1082.9377	-95.619423	-340.10178	953.83954	379.63678	-407.84787	1015.5482	339.16339
138	0.68	-340.30331	119.0588	-530.73456	-393.54892	131.80377	-512.05786	-201.23465	523.38513	-419.55881	-286.4028	532.92493	-364.34033	-183.36287	901.90771	-609.15466	-431.80347	1107.8566	-417.4678	-281.0343	1002.3771	-68.126091	-360.87927	1075.1785	-93.588753	-340.60696	932.59314	367.38715	-413.21652	995.63232	339.20261
139	0.685	-342.04346	118.25848	-530.44354	-394.51178	131.46902	-512.20831	-202.87364	523.63849	-419.69495	-288.99396	533.35779	-365.31607	-183.10954	902.43018	-607.64655	-434.32727	1106.4351	-418.40573	-284.18173	995.13251	-66.650253	-369.98199	1067.1351	-91.451149	-340.75696	911.47491	354.61746	-418.3093	975.15161	338.2511
